<svg width="50" height="50" viewBox="0 0 50 50" fill="none" xmlns="http://www.w3.org/2000/svg">
<g clip-path="url(#clip0_388_27443)">
<path d="M40.0499 9.54999H38.9V10.55M38.9 8.74999V9.54999H37.5999M35.2999 21.25H38V18.65M38 21.25H40.25M31.2 12.4V14.55H32.65M31.2 14.55V15.8M38 21.25V21.95M29.2 14.55H31.2M10.35 6.89999V9.44999H12.25M8.39995 9.44999H10.35V12.1M12.35 20.7H13.9V18.55M15.45 20.7H13.9V21.35M10.65 35.65H9.09995V37.1M7.44995 35.65H9.09995V34.05M19.15 47.35V45.5H17.2M19.15 43.65V45.5H21" stroke="white" stroke-linecap="round" stroke-linejoin="round"/>
<path d="M22.1964 42.024L23.8974 41.7602C22.4232 39.8546 21.119 37.2748 19.985 34.0207L17.3909 37.4507C17.079 37.8611 16.9231 38.3595 16.9231 38.9458C16.9798 39.4442 17.1783 39.9426 17.5185 40.441C18.3123 41.4084 19.2904 41.9801 20.4528 42.156H20.8355C21.2891 42.1853 21.7427 42.1413 22.1964 42.024ZM49.3706 16.8707C49.2005 15.7567 48.917 15.1557 48.5201 15.0678C48.0948 14.9798 47.5845 15.2877 46.9891 15.9913C46.4221 16.6655 46.0252 17.1346 45.7984 17.3984C45.6283 17.545 45.3164 17.8089 44.8628 18.19C44.7494 20.0369 43.8706 21.4294 42.2262 22.3675L35.2094 25.006L34.529 31.0305C35.8615 30.6787 37.0097 30.3562 37.9736 30.063L42.0561 28.7878C43.7855 28.0842 45.0896 27.2487 45.9685 26.2812C46.6773 25.6949 47.2727 24.9767 47.7546 24.1265C47.9247 23.8627 48.0948 23.5109 48.2649 23.0711L48.35 22.9392C48.7185 22.089 48.9879 21.1656 49.158 20.1688C49.243 19.6997 49.2997 19.1867 49.3281 18.6297L49.3706 16.8707Z" fill="#FFEEB1"/>
<path d="M33.083 38.9458C33.1114 38.3595 32.9696 37.8465 32.6578 37.4067L30.0637 34.0207C28.9297 37.2748 27.6113 39.8546 26.1087 41.7602H26.1513L27.8523 42.024C28.3059 42.1413 28.7454 42.1853 29.1706 42.156H29.5959C30.7583 41.9507 31.7364 41.3644 32.5302 40.397C32.8704 39.9866 33.0547 39.5028 33.083 38.9458ZM25.0456 4.46999H25.0031C24.4928 4.46999 23.9683 4.57259 23.4296 4.77781L22.9618 4.99768C21.9979 5.64263 21.4876 6.43417 21.4309 7.37229C21.3742 7.69477 21.3742 8.01725 21.4309 8.33972C21.4592 8.69152 21.5017 9.014 21.5584 9.30716L21.7711 10.1866C21.8561 10.5678 21.9412 10.9195 22.0262 11.242L22.1963 12.4293C22.2247 12.957 22.1113 13.4847 21.8561 14.0124L20.1551 17.5304C20.1267 17.5597 20.0842 17.6623 20.0275 17.8382L19.985 17.9701L17.9862 19.0255C17.079 19.26 16.1293 19.4506 15.137 19.5971C14.3999 19.7144 13.6486 19.7877 12.8831 19.817C12.0326 19.8756 11.2529 19.905 10.5441 19.905C9.83537 19.9929 9.11243 19.9343 8.3753 19.7291C7.58148 19.4945 6.81601 19.1721 6.07889 18.7616C5.79538 18.5857 5.51187 18.3952 5.22836 18.19C4.8598 17.8968 4.54794 17.633 4.29279 17.3984C3.95258 17.0173 3.55566 16.5483 3.10205 15.9913C2.50668 15.2877 1.99637 14.9798 1.57111 15.0678C1.14584 15.1557 0.876511 15.7567 0.763107 16.8707C0.706406 17.3105 0.706406 17.7502 0.763107 18.19V18.6297C0.791458 19.1867 0.84816 19.6998 0.933212 20.1688C1.10332 21.1362 1.37265 22.0597 1.74121 22.9392L1.78374 23.0711C1.98219 23.5109 2.16647 23.8627 2.33658 24.1265C2.81854 24.9767 3.39973 25.6949 4.08015 26.2812C4.98738 27.2487 6.29152 28.0842 7.99257 28.7878L15.6048 31.0305C16.5687 31.265 17.079 31.3823 17.1357 31.3823L18.9218 26.8969C18.9218 27.6884 19.0069 28.6852 19.177 29.8871L19.3896 31.2503C19.418 31.5142 19.503 31.9686 19.6448 32.6135L19.7298 33.0533V33.1412L19.8999 33.8008L19.985 34.0207C21.119 37.2748 22.4231 39.8546 23.8974 41.7602H25.0031V14.3642H25.0456V4.46999ZM44.8628 18.19C44.5226 18.4245 44.2249 18.6151 43.9698 18.7616C43.261 19.1721 42.5097 19.4945 41.7159 19.7291C40.9504 19.9343 40.2275 19.9929 39.547 19.905C38.8383 19.905 38.0586 19.8756 37.2081 19.817C36.4426 19.7877 35.6913 19.7144 34.9542 19.5971C33.9336 19.4506 32.9838 19.26 32.1049 19.0255L30.0637 17.9261C30.7725 19.9196 31.141 21.9571 31.1694 24.0385C31.1977 25.1232 31.1835 26.0614 31.1268 26.8529L32.9129 31.3823H32.9555C33.0122 31.3823 33.5367 31.265 34.5289 31.0305L35.2094 25.006L42.2262 22.3675C43.8705 21.4294 44.7494 20.0369 44.8628 18.19Z" fill="#FFD84F"/>
<path d="M30.8717 29.8871L30.6591 31.2503L32.913 31.3823L31.1269 26.8529C31.0702 28.0256 30.9851 29.037 30.8717 29.8871ZM17.1357 31.3823L19.3896 31.2503L19.177 29.8871C19.0069 28.6852 18.9218 27.6884 18.9218 26.8969L17.1357 31.3823Z" fill="#CCAF50"/>
<path d="M25.1306 4.46999H25.0456V14.3642H25.0031V41.7602H26.1087C27.6113 39.8546 28.9296 37.2748 30.0637 34.0207V33.9328L30.2338 33.537V33.3611L30.3188 33.1412L30.4039 32.6135C30.4889 32.2324 30.574 31.778 30.659 31.2503L30.8717 29.8871C30.9851 29.037 31.0701 28.0256 31.1268 26.8529C31.1835 26.0614 31.1977 25.1232 31.1694 24.0385C31.141 21.9571 30.7724 19.9196 30.0637 17.9261L29.6809 17.0466C29.199 16.0499 28.7454 15.1557 28.3201 14.3642L28.1925 14.0124C27.9657 13.4554 27.8523 12.9277 27.8523 12.4293L28.0224 11.242C28.1075 11.0075 28.1925 10.6557 28.2776 10.1866L28.6603 8.33972C28.6887 8.01725 28.6887 7.69477 28.6603 7.37229C28.6036 6.43417 28.0933 5.64263 27.1294 4.99768H27.0868L26.619 4.77781C26.5056 4.71917 26.3922 4.6752 26.2788 4.64588C25.8819 4.55793 25.4992 4.4993 25.1306 4.46999Z" fill="#FFC600"/>
<path d="M24.2801 0.732172C24.0533 0.849437 23.869 0.98136 23.7273 1.12794C23.5288 1.36247 23.3871 1.64097 23.302 1.96345L23.1744 2.97486V3.28268L22.9618 4.99768L23.4296 4.77781C23.9682 4.57259 24.4927 4.46999 25.0031 4.46999H25.0456V0.556274H24.8755C24.592 0.614907 24.3935 0.67354 24.2801 0.732172Z" fill="#FC7B26"/>
<path d="M26.3214 1.12794C26.1797 0.98136 25.9954 0.849437 25.7686 0.732172C25.6268 0.67354 25.4284 0.614907 25.1732 0.556274H25.0457V4.46999H25.1307C25.4993 4.4993 25.882 4.55794 26.2789 4.64588C26.3923 4.6752 26.5057 4.71918 26.6191 4.77781L27.0869 4.99768L26.7042 1.96345C26.6475 1.64097 26.5199 1.36247 26.3214 1.12794Z" fill="#CA5B01"/>
<path d="M49.1 37.05C49.1 33.7833 47.95 30.9667 45.65 28.6C43.3167 26.2333 40.4834 25.05 37.15 25.05C33.8834 25.05 31.0667 26.2333 28.7 28.6C26.3334 30.9667 25.15 33.7833 25.15 37.05C25.15 40.3833 26.3334 43.2 28.7 45.5C31.0667 47.8667 33.8834 49.05 37.15 49.05C40.4834 49.05 43.3167 47.8667 45.65 45.5C47.95 43.2 49.1 40.3833 49.1 37.05Z" fill="#018501"/>
<path d="M41.9001 39.7C41.8334 39.2333 41.9667 38.8333 42.3001 38.5L44.8001 36.15C45.1334 35.7167 45.2501 35.3 45.1501 34.9C44.9834 34.5 44.6501 34.2333 44.1501 34.1L40.7001 33.65C40.2667 33.5833 39.9501 33.3333 39.7501 32.9L38.2501 29.95C37.9834 29.35 37.6167 29.05 37.1501 29.05C36.6834 29.05 36.3167 29.35 36.0501 29.95L34.6001 32.9C34.4001 33.3333 34.0667 33.5833 33.6001 33.65L30.1501 34.1C29.6167 34.2333 29.3001 34.5 29.2001 34.9C29.0667 35.3 29.1834 35.7167 29.5501 36.15L32.0001 38.5C32.3001 38.8333 32.4334 39.2333 32.4001 39.7L31.8501 43.05V43.1C31.7501 43.6 31.8834 43.9833 32.2501 44.25C32.5501 44.4833 32.9501 44.5 33.4501 44.3L36.5501 42.7C36.8167 42.5667 37.0167 42.5167 37.1501 42.55C37.3167 42.5167 37.5334 42.5667 37.8001 42.7L40.9001 44.3C41.4001 44.5 41.8001 44.4833 42.1001 44.25C42.4334 43.9833 42.5667 43.6 42.5001 43.1V43.05L41.9001 39.7Z" fill="white"/>
<path d="M36.35 37C36.8927 37.5767 37.4185 37.5767 37.9273 37" stroke="#018501" stroke-width="1.01764" stroke-linecap="round" stroke-linejoin="round"/>
<path d="M35.4371 36.1185C35.4371 35.8132 35.3353 35.5588 35.1318 35.3553C34.9283 35.1518 34.6739 35.05 34.3686 35.05C34.0633 35.05 33.8089 35.1518 33.6053 35.3553C33.4018 35.5588 33.3 35.8132 33.3 36.1185C33.3 36.3899 33.4018 36.6443 33.6053 36.8818C33.8089 37.0853 34.0633 37.187 34.3686 37.187C34.6739 37.187 34.9283 37.0853 35.1318 36.8818C35.3353 36.6443 35.4371 36.3899 35.4371 36.1185Z" fill="#018501"/>
<path d="M41.137 36.1185C41.137 35.8132 41.0353 35.5588 40.8318 35.3553C40.6282 35.1518 40.3738 35.05 40.0685 35.05C39.7632 35.05 39.5088 35.1518 39.3053 35.3553C39.1018 35.5588 39 35.8132 39 36.1185C39 36.3899 39.1018 36.6443 39.3053 36.8818C39.5088 37.0853 39.7632 37.187 40.0685 37.187C40.3738 37.187 40.6282 37.0853 40.8318 36.8818C41.0353 36.6443 41.137 36.3899 41.137 36.1185Z" fill="#018501"/>
</g>
<defs>
<clipPath id="clip0_388_27443">
<rect width="50" height="50" fill="white"/>
</clipPath>
</defs>
</svg>
